<svg width="1817" height="652" viewBox="0 0 1817 652" fill="none" xmlns="http://www.w3.org/2000/svg">
<path d="M540.528 539C533.028 538.5 521.228 528.6 534.028 493C546.828 457.4 686.028 152.167 754.028 4C687.11 115.721 638.249 188.775 561.528 309.5C516.694 366 425.427 480.4 419.027 486C411.027 493 247.982 697.366 65.5275 583C-84.5824 488.909 93.9615 401.303 204.527 385C314.105 363.32 421.011 354.12 461.028 355C604.63 353.576 891.832 357.034 900.528 359.5C912.496 362.894 903.05 376.479 895.028 384M642.028 393.5C637.261 385.233 614.367 374.665 610.528 393.5C607.014 410.738 642.67 448.316 634.528 463C619.845 479.1 585.319 484.781 579.528 479C569.04 472.211 575.003 466.021 578.028 461.5C581.052 456.979 619.502 431.765 669.028 413.5C693.888 360.997 706.661 331.124 736.528 280.5C707.317 345.54 692.722 383.297 657.528 444C676.861 421.167 717.928 377.9 727.528 387.5C739.528 399.5 710.115 436.307 725.028 438C741.355 439.853 784.721 413.615 782.528 394C773.975 414.803 770.028 445.5 769.028 449.5C768.028 453.5 831.797 404.889 823.028 401C813.784 396.901 806.028 460.5 816.028 453.5C820.416 457.082 883.028 374.5 885.028 374.5M887.528 403C875.694 420.5 857.328 454.3 878.528 449.5C905.028 443.5 942.528 412 941.528 403C940.728 395.8 923.861 428.667 915.528 446C937.194 427 985.678 392.561 983.528 407C981.454 420.917 969.468 431.026 971.528 446C972.542 453.377 1019.69 437.24 1024.53 422M1239.53 176.5C1221.59 270.562 1085.8 643.828 1055.53 639.5C1007.34 684.406 1163.56 340.694 1216.53 297.5M941.028 202.5C1148.16 140.747 1738.57 111.976 1812.53 157.5M1220.53 413.5C1229.46 422.802 1254.98 437.507 1267.53 405.5C1270.07 398.68 1254.48 391.683 1233.53 405.5C1228.21 409.985 1215.6 426.668 1215.03 437C1216.17 443.062 1232.54 451.524 1233.03 451C1240.19 452.667 1259.03 452.8 1277.03 440C1295.03 427.2 1304.86 403.667 1307.53 393.5C1302.03 412.667 1289.23 451 1282.03 451C1273.03 451 1347.53 400 1349.03 404C1350.53 408 1345.03 440 1334.03 445.5C1323.03 451 1324.29 441.749 1331.53 435C1338.56 428.45 1413.53 393.837 1399.53 400C1391.36 414.5 1377.88 441.85 1389.03 443C1414.55 445.634 1447.98 431.951 1502.03 286C1503.19 283.167 1501.66 275.761 1500.03 280.5C1498.11 286.088 1417.06 469.723 1411.03 466C1410.08 465.413 1419.7 465.245 1415.53 470.5C1400.54 489.391 1440.5 398.907 1495.53 396.5C1476.03 400.5 1426.13 422.62 1445.53 439.5C1459.78 451.9 1497.23 435.85 1511.03 431.5C1532.36 410 1576.33 373.8 1581.53 401C1581.28 382.192 1519.41 404.485 1518.03 444.5C1522.69 451.167 1540.23 455.1 1573.03 417.5C1569.53 426.333 1566.19 439.126 1573.03 444C1588.96 455.356 1624.36 421.799 1633.03 393C1617.76 403.276 1597.32 442.311 1600.03 448C1622.66 413.316 1677.15 373.052 1666.53 412" stroke="black" stroke-width="15"/>
</svg>
